<svg xmlns="http://www.w3.org/2000/svg" enable-background="new 0 0 256 256" viewBox="0 0 256 256" id="development">
  <path fill="#fff" d="M240.669,120.638v14.654c0,6.415-5.199,11.479-11.479,11.479h-20.799
			c-2.093,8.981-5.605,17.22-10.332,24.715l14.789,14.653c4.457,4.524,4.457,11.817,0,16.274l-10.467,10.399
			c-4.524,4.457-11.682,4.457-16.139,0l-14.789-14.721c-7.496,4.794-15.801,8.238-24.715,10.332v20.664
			c0,6.415-5.132,11.48-11.412,11.48h-14.721c-6.348,0-11.412-5.065-11.412-11.48v-20.664c-8.981-2.026-17.22-5.537-24.783-10.332
			l-14.721,14.721c-4.457,4.457-11.682,4.457-16.139,0l-10.467-10.399c-4.457-4.457-4.457-11.75,0-16.274l14.654-14.653
			c-4.659-7.495-8.171-15.734-10.264-24.715H26.741c-6.28,0-11.412-5.065-11.412-11.479v-14.654c0-6.415,5.132-11.479,11.412-11.479
			H47.54c2.093-8.981,5.537-17.287,10.332-24.715L43.083,69.723c-4.457-4.457-4.457-11.75,0-16.207L53.55,43.117
			c4.457-4.457,11.682-4.457,16.139,0L84.477,57.77c7.496-4.592,15.869-8.171,24.715-10.197V26.91
			c0-6.415,5.065-11.479,11.412-11.479h14.721c6.28,0,11.412,5.065,11.412,11.479v20.664c8.914,2.094,17.22,5.605,24.715,10.332
			l14.789-14.789c4.457-4.457,11.615-4.457,16.139,0l10.467,10.399c4.457,4.457,4.457,11.75,0,16.207l-14.789,14.789
			c4.727,7.495,8.239,15.802,10.332,24.648h20.799C235.47,109.159,240.669,114.224,240.669,120.638z"></path>
  <path fill="#fff" d="M240.669,120.638v14.654c0,6.415-5.199,11.479-11.479,11.479h-20.799
			c-2.093,8.981-5.605,17.22-10.332,24.715l14.789,14.653c4.457,4.524,4.457,11.817,0,16.274l-10.467,10.399
			c-4.524,4.457-11.682,4.457-16.139,0l-14.789-14.721c-7.496,4.794-15.801,8.238-24.715,10.332v20.664
			c0,6.415-5.132,11.48-11.412,11.48h-14.721c-6.348,0-11.412-5.065-11.412-11.48v-20.664c-8.981-2.026-17.22-5.537-24.783-10.332
			l-14.721,14.721c-4.457,4.457-11.682,4.457-16.139,0l-10.467-10.399c-4.457-4.457-4.457-11.75,0-16.274l14.654-14.653
			c-4.659-7.495-8.171-15.734-10.264-24.715H26.741c-6.28,0-11.412-5.065-11.412-11.479v-14.654c0-6.415,5.132-11.479,11.412-11.479
			H47.54c2.093-8.981,5.537-17.287,10.332-24.715L43.083,69.723c-4.457-4.457-4.457-11.75,0-16.207L53.55,43.117
			c4.457-4.457,11.682-4.457,16.139,0L84.477,57.77c7.496-4.592,15.869-8.171,24.715-10.197V26.91
			c0-6.415,5.065-11.479,11.412-11.479h14.721c6.28,0,11.412,5.065,11.412,11.479v20.664c8.914,2.094,17.22,5.605,24.715,10.332
			l14.789-14.789c4.457-4.457,11.615-4.457,16.139,0l10.467,10.399c4.457,4.457,4.457,11.75,0,16.207l-14.789,14.789
			c4.727,7.495,8.239,15.802,10.332,24.648h20.799C235.47,109.159,240.669,114.224,240.669,120.638z"></path>
  <path fill="#fdc140" d="M123.718,226.044v-29.234l-11.33-2.557c-7.11-1.603-13.908-4.436-20.202-8.429l-9.823-6.223
			l-20.752,20.749l-6.117-6.078l20.663-20.663l-6.089-9.791c-3.936-6.333-6.78-13.177-8.45-20.341l-2.617-11.227H29.855v-8.564
			h29.217l2.614-11.231c1.727-7.411,4.55-14.185,8.39-20.135l6.372-9.876L55.533,61.623l6.089-6.053l20.724,20.532l9.713-5.947
			c6.514-3.986,13.369-6.819,20.376-8.422l11.284-2.582V29.956h8.497v29.128l11.206,2.631c7.227,1.695,14.053,4.55,20.284,8.479
			l9.816,6.188l20.798-20.802l6.085,6.046l-20.819,20.816l6.188,9.816c3.922,6.216,6.777,13.029,8.486,20.249l2.649,11.177h29.238
			v8.564h-29.277l-2.621,11.224c-1.681,7.199-4.528,14.014-8.472,20.266l-6.223,9.858l20.876,20.685l-6.114,6.075l-20.873-20.777
			l-9.816,6.277c-6.036,3.862-12.834,6.695-20.206,8.426l-11.206,2.631v29.132H123.718z"></path>
  <path d="M229.191,149.497c7.83,0,14.202-6.372,14.202-14.206v-14.653c0-7.83-6.372-14.202-14.202-14.202h-18.674
			c-2-7.592-5.025-14.812-9.014-21.518l13.27-13.27c5.528-5.528,5.528-14.529-0.007-20.064l-10.472-10.408
			c-5.543-5.465-14.507-5.458-19.979,0.014l-13.27,13.273c-6.727-4-13.968-7.028-21.582-9.021V26.91
			c0-7.83-6.344-14.202-14.139-14.202h-14.72c-7.926,0-14.135,6.238-14.135,14.202v18.522c-7.426,1.915-14.663,4.904-21.575,8.919
			l-13.28-13.16c-5.507-5.507-14.475-5.514-19.983-0.007L41.157,51.591c-5.528,5.528-5.528,14.529,0.004,20.061L54.409,84.84
			c-3.965,6.56-6.986,13.809-9.004,21.596H26.741c-7.794,0-14.135,6.372-14.135,14.202v14.653c0,7.833,6.341,14.206,14.135,14.206
			h18.596c1.968,7.546,4.975,14.784,8.961,21.571l-13.156,13.16c-5.5,5.582-5.493,14.607,0.021,20.121l10.461,10.39
			c5.514,5.514,14.482,5.507,19.99,0l13.199-13.199c6.812,4.075,14.078,7.103,21.656,9.032v18.518
			c0,7.965,6.209,14.202,14.135,14.202h14.72c7.794,0,14.139-6.372,14.139-14.202v-18.536c7.741-2.021,14.986-5.043,21.592-9.011
			l13.259,13.195c5.472,5.472,14.436,5.479,19.986,0.007l10.472-10.404c5.507-5.507,5.514-14.532-0.007-20.139l-13.256-13.131
			c4.011-6.745,7.036-13.982,9.014-21.575H229.191z M205.74,146.153c-1.979,8.482-5.337,16.514-9.986,23.88
			c-0.681,1.082-0.518,2.489,0.387,3.39l14.766,14.628c3.408,3.461,3.415,9.039,0.021,12.433l-10.458,10.39
			c-3.479,3.422-8.887,3.436-12.309,0.011l-14.787-14.72c-0.901-0.901-2.316-1.05-3.39-0.365
			c-7.163,4.582-15.192,7.936-23.869,9.972c-1.231,0.291-2.099,1.387-2.099,2.653v20.667c0,4.826-3.901,8.755-8.692,8.755h-14.72
			c-4.872,0-8.688-3.848-8.688-8.755v-20.667c0-1.273-0.883-2.376-2.124-2.656c-8.436-1.901-16.483-5.259-23.926-9.975
			c-0.447-0.284-0.954-0.422-1.457-0.422c-0.702,0-1.401,0.273-1.926,0.798l-14.72,14.72c-3.39,3.383-8.897,3.39-12.294-0.007
			l-10.461-10.39c-3.401-3.401-3.394-8.979,0-12.426l14.653-14.653c0.894-0.894,1.057-2.287,0.387-3.365
			c-4.621-7.429-7.961-15.468-9.922-23.89c-0.287-1.234-1.387-2.106-2.653-2.106H26.741c-4.791,0-8.688-3.929-8.688-8.759v-14.653
			c0-4.826,3.897-8.755,8.688-8.755H47.54c1.266,0,2.365-0.872,2.653-2.106c2.035-8.738,5.387-16.763,9.965-23.858
			c0.699-1.078,0.546-2.5-0.365-3.404L45.008,67.797c-3.404-3.408-3.404-8.947-0.007-12.348l10.475-10.408
			c3.383-3.383,8.897-3.394,12.295,0.011l14.787,14.653c0.894,0.879,2.27,1.035,3.34,0.387c7.606-4.656,15.649-7.975,23.901-9.862
			c1.238-0.284,2.117-1.387,2.117-2.656V26.91c0-4.908,3.816-8.755,8.688-8.755h14.72c4.791,0,8.692,3.929,8.692,8.755v20.663
			c0,1.266,0.869,2.362,2.099,2.653c8.507,1.996,16.543,5.355,23.883,9.986c1.082,0.674,2.482,0.518,3.379-0.379l14.787-14.791
			c3.418-3.418,8.823-3.418,12.298,0.007l10.458,10.394c3.404,3.408,3.404,8.947,0,12.355l-14.787,14.787
			c-0.901,0.901-1.057,2.301-0.379,3.379c4.617,7.319,7.979,15.337,9.99,23.823c0.291,1.227,1.387,2.096,2.649,2.096h20.798
			c4.826,0,8.755,3.929,8.755,8.755v14.653c0,4.83-3.929,8.759-8.755,8.759h-20.798C207.127,144.05,206.028,144.922,205.74,146.153z
			"></path>
  <path d="M102.278 112.486c-.865-1.227-2.564-1.518-3.794-.652l-19.745 13.943c-.723.511-1.152 1.34-1.152 2.223 0 .887.429 1.713 1.152 2.223l19.745 13.94c1.244.875 2.939.565 3.794-.652.869-1.231.574-2.929-.652-3.794L85.03 128l16.596-11.72C102.852 115.415 103.147 113.713 102.278 112.486zM157.516 111.833c-1.238-.869-2.933-.578-3.794.652-.869 1.227-.578 2.929.652 3.794L170.967 128l-16.592 11.716c-1.227.865-1.521 2.567-.652 3.794.854 1.215 2.547 1.53 3.794.652l19.741-13.94c.723-.511 1.152-1.337 1.152-2.223 0-.883-.429-1.713-1.152-2.223L157.516 111.833zM138.63 91.648c-1.45-.429-2.957.404-3.379 1.848l-19.731 67.476c-.422 1.447.404 2.957 1.848 3.379 1.438.42 2.955-.398 3.379-1.848l19.731-67.476C140.899 93.581 140.073 92.07 138.63 91.648z"></path>
</svg>
